<svg xmlns="http://www.w3.org/2000/svg" viewBox="0 0 200 200">
    <path fill="currentColor" d="M103.45,120.55l-18.9,18.9a3.6,3.6,0,0,0,0,5.1l3.3,3.3A3.6,3.6,0,0,1,85.31,154H49.6a3.6,3.6,0,0,1-3.6-3.6V114.69a3.6,3.6,0,0,1,6.15-2.54l3.3,3.3a3.6,3.6,0,0,0,5.1,0l18.9-18.9a3.6,3.6,0,0,1,5.1,0l18.9,18.9A3.6,3.6,0,0,1,103.45,120.55Z"/>
    <path fill="currentColor" d="M154,85.31a3.6,3.6,0,0,1-6.15,2.54l-3.3-3.3a3.6,3.6,0,0,0-5.1,0l-18.9,18.9a3.6,3.6,0,0,1-5.1,0l-18.9-18.9a3.6,3.6,0,0,1,0-5.1l18.9-18.9a3.6,3.6,0,0,0,0-5.1l-3.3-3.3A3.6,3.6,0,0,1,114.69,46H150.4a3.6,3.6,0,0,1,3.6,3.6Z"/>
</svg>
