<svg xmlns="http://www.w3.org/2000/svg" viewBox="0 0 200 200">
    <path fill="currentColor" d="M42.17,91h1.25a2.7,2.7,0,0,0,2.71-2.7V48.7a2.7,2.7,0,0,1,2.7-2.7H151.42a2.7,2.7,0,0,1,2.71,2.7v18a2.7,2.7,0,0,1-2.71,2.7H138.83a2.7,2.7,0,0,1-2.7-2.7,2.7,2.7,0,0,0-2.71-2.7H66.83a2.7,2.7,0,0,0-2.7,2.7V88.3a2.7,2.7,0,0,0,2.7,2.7h1.25a2.7,2.7,0,0,1,2.25,4.2l-13,19.43a2.7,2.7,0,0,1-4.49,0l-13-19.43A2.7,2.7,0,0,1,42.17,91Z"/>
    <path fill="currentColor" d="M158.08,109h-1.25a2.7,2.7,0,0,0-2.7,2.7v39.6a2.7,2.7,0,0,1-2.71,2.7H48.83a2.7,2.7,0,0,1-2.7-2.7v-18a2.7,2.7,0,0,1,2.7-2.7H61.42a2.7,2.7,0,0,1,2.71,2.7,2.7,2.7,0,0,0,2.7,2.7h66.59a2.7,2.7,0,0,0,2.71-2.7V111.7a2.7,2.7,0,0,0-2.71-2.7h-1.25a2.7,2.7,0,0,1-2.25-4.2l13-19.43a2.7,2.7,0,0,1,4.49,0l13,19.43A2.7,2.7,0,0,1,158.08,109Z"/>
</svg>
