<svg xmlns="http://www.w3.org/2000/svg" viewBox="0 0 200 200">
    <path fill="currentColor" d="M147.83,86.57h-5.07a9.25,9.25,0,0,1-8-13.88l2.54-4.4A6.18,6.18,0,0,0,135,59.86l-16-9.25a6.17,6.17,0,0,0-8.43,2.25L108,57.26a9.26,9.26,0,0,1-16,0l-2.53-4.39A6.16,6.16,0,0,0,81,50.61L65,59.86a6.18,6.18,0,0,0-2.26,8.43l2.54,4.4a9.25,9.25,0,0,1-8,13.88H52.17A6.17,6.17,0,0,0,46,92.74v18.52a6.17,6.17,0,0,0,6.17,6.17h5.07a9.25,9.25,0,0,1,8,13.88l-2.54,4.4A6.18,6.18,0,0,0,65,144.14l16,9.25a6.16,6.16,0,0,0,8.43-2.26L92,146.74a9.26,9.26,0,0,1,16,0l2.53,4.39a6.16,6.16,0,0,0,8.43,2.26l16-9.25a6.18,6.18,0,0,0,2.26-8.43l-2.54-4.4a9.25,9.25,0,0,1,8-13.88h5.07a6.17,6.17,0,0,0,6.17-6.17V92.74A6.17,6.17,0,0,0,147.83,86.57Zm-34.47,23.14a15.43,15.43,0,1,1-5.65-21.07A15.42,15.42,0,0,1,113.36,109.71Z"/>
</svg>
