<svg xmlns="http://www.w3.org/2000/svg" viewBox="0 0 200 200">
    <path fill="currentColor" d="M124.77,115.39a2.65,2.65,0,0,1,2.17-2.63,12.6,12.6,0,0,0,0-24.83,2.65,2.65,0,0,1-2.17-2.62h0a2.7,2.7,0,0,1,3.12-2.68,18,18,0,0,1,0,35.46,2.71,2.71,0,0,1-3.12-2.69Z"/>
    <path fill="currentColor" d="M115.77,146.49c0,5.83-5.11,9.63-9.46,7L62.7,127.35H46.47a7.21,7.21,0,0,1-7.2-7.2V80.55a7.2,7.2,0,0,1,7.2-7.2H62.7l43.61-26.17c4.35-2.6,9.46,1.19,9.46,7Z"/>
    <path fill="currentColor" d="M128.44,136.16a3.31,3.31,0,0,1-3.67-3.26,3.21,3.21,0,0,1,2.83-3.23,29.46,29.46,0,0,0,0-58.64,3.22,3.22,0,0,1-2.83-3.23,3.31,3.31,0,0,1,3.67-3.27,36,36,0,0,1,0,71.63Z"/>
</svg>
